<svg width="24" height="15" viewBox="0 0 24 15" fill="none" xmlns="http://www.w3.org/2000/svg">
<path d="M23.6602 8.09766C23.8867 8.59766 24 9.11719 24 9.65625V10.5C24 11.0938 23.8398 11.6367 23.5195 12.1289C23.1992 12.6211 22.7695 12.9883 22.2305 13.2305C21.9883 13.7695 21.6211 14.1992 21.1289 14.5195C20.6367 14.8398 20.0938 15 19.5 15C18.9609 15 18.4609 14.8672 18 14.6016C17.5391 14.3359 17.1719 13.9688 16.8984 13.5H8.60156C8.32812 13.9688 7.96094 14.3359 7.5 14.6016C7.03906 14.8672 6.53906 15 6 15C5.46094 15 4.96094 14.8672 4.5 14.6016C4.03906 14.3359 3.67188 13.9688 3.39844 13.5H1.5C1.28906 13.5 1.09375 13.4609 0.914062 13.3828C0.734375 13.3047 0.578125 13.1992 0.445312 13.0664C0.3125 12.9336 0.203125 12.7734 0.117188 12.5859C0.03125 12.3984 -0.0078125 12.2031 1.16415e-10 12V9C1.16415e-10 8.375 0.117188 7.78906 0.351562 7.24219C0.585938 6.69531 0.90625 6.21875 1.3125 5.8125C1.71875 5.40625 2.19531 5.08594 2.74219 4.85156C3.28906 4.61719 3.875 4.5 4.5 4.5H4.93359L8.77734 0.65625C8.98828 0.445312 9.23047 0.285156 9.50391 0.175781C9.77734 0.0664062 10.0664 0.0078125 10.3711 0H21V1.5H20.6602L23.6602 8.09766ZM15 1.5V4.5H20.3789L19.2188 1.93359C19.1562 1.80078 19.0625 1.69531 18.9375 1.61719C18.8125 1.53906 18.6758 1.5 18.5273 1.5H15ZM10.3711 1.5C10.168 1.5 9.99219 1.57422 9.84375 1.72266L7.06641 4.5H13.5V1.5H10.3711ZM6 13.5C6.21094 13.5 6.40625 13.4609 6.58594 13.3828C6.76562 13.3047 6.92188 13.1992 7.05469 13.0664C7.1875 12.9336 7.29687 12.7734 7.38281 12.5859C7.46875 12.3984 7.50781 12.2031 7.5 12C7.5 11.7891 7.46094 11.5938 7.38281 11.4141C7.30469 11.2344 7.19922 11.0781 7.06641 10.9453C6.93359 10.8125 6.77344 10.7031 6.58594 10.6172C6.39844 10.5312 6.20312 10.4922 6 10.5C5.78906 10.5 5.59375 10.5391 5.41406 10.6172C5.23438 10.6953 5.07812 10.8008 4.94531 10.9336C4.8125 11.0664 4.70312 11.2266 4.61719 11.4141C4.53125 11.6016 4.49219 11.7969 4.5 12C4.5 12.2109 4.53906 12.4062 4.61719 12.5859C4.69531 12.7656 4.80078 12.9219 4.93359 13.0547C5.06641 13.1875 5.22656 13.2969 5.41406 13.3828C5.60156 13.4688 5.79687 13.5078 6 13.5ZM6 9C6.41406 9 6.80078 9.07812 7.16016 9.23438C7.51953 9.39062 7.83984 9.60547 8.12109 9.87891C8.40234 10.1523 8.61719 10.4688 8.76562 10.8281C8.91406 11.1875 8.99219 11.5781 9 12H13.5V6H4.5C4.08594 6 3.69922 6.07812 3.33984 6.23438C2.98047 6.39062 2.66016 6.60547 2.37891 6.87891C2.09766 7.15234 1.88281 7.46875 1.73438 7.82812C1.58594 8.1875 1.50781 8.57812 1.5 9V12H3C3 11.5859 3.07813 11.1992 3.23438 10.8398C3.39062 10.4805 3.60547 10.1602 3.87891 9.87891C4.15234 9.59766 4.46875 9.38281 4.82812 9.23438C5.1875 9.08594 5.57812 9.00781 6 9ZM19.5 13.5C19.7109 13.5 19.9062 13.4609 20.0859 13.3828C20.2656 13.3047 20.4219 13.1992 20.5547 13.0664C20.6875 12.9336 20.7969 12.7734 20.8828 12.5859C20.9688 12.3984 21.0078 12.2031 21 12C21 11.7891 20.9609 11.5938 20.8828 11.4141C20.8047 11.2344 20.6992 11.0781 20.5664 10.9453C20.4336 10.8125 20.2734 10.7031 20.0859 10.6172C19.8984 10.5312 19.7031 10.4922 19.5 10.5C19.2891 10.5 19.0938 10.5391 18.9141 10.6172C18.7344 10.6953 18.5781 10.8008 18.4453 10.9336C18.3125 11.0664 18.2031 11.2266 18.1172 11.4141C18.0312 11.6016 17.9922 11.7969 18 12C18 12.2109 18.0391 12.4062 18.1172 12.5859C18.1953 12.7656 18.3008 12.9219 18.4336 13.0547C18.5664 13.1875 18.7266 13.2969 18.9141 13.3828C19.1016 13.4688 19.2969 13.5078 19.5 13.5ZM22.5 9.65625C22.5 9.33594 22.4336 9.02344 22.3008 8.71875L21.0586 6H15V12H16.5C16.5 11.5859 16.5781 11.1992 16.7344 10.8398C16.8906 10.4805 17.1055 10.1602 17.3789 9.87891C17.6523 9.59766 17.9688 9.38281 18.3281 9.23438C18.6875 9.08594 19.0781 9.00781 19.5 9C19.8281 9 20.1445 9.05078 20.4492 9.15234C20.7539 9.25391 21.0312 9.39844 21.2812 9.58594C21.5312 9.77344 21.75 9.99609 21.9375 10.2539C22.125 10.5117 22.2695 10.8008 22.3711 11.1211C22.457 10.9102 22.5 10.7031 22.5 10.5V9.65625Z" fill="#DEE2E6"/>
</svg>
