<svg width="24" height="20" viewBox="0 0 24 20" fill="none" xmlns="http://www.w3.org/2000/svg">
<path d="M2.57143 14.2857C3.51821 14.2857 4.28572 13.1344 4.28572 11.7143C4.28572 10.2941 3.51821 9.14282 2.57143 9.14282C1.62466 9.14282 0.857147 10.2941 0.857147 11.7143C0.857147 13.1344 1.62466 14.2857 2.57143 14.2857Z" stroke="#DEE2E6" stroke-width="1.71429" stroke-linecap="round" stroke-linejoin="round"/>
<path d="M7.71429 6.57145C8.66106 6.57145 9.42857 5.42018 9.42857 4.00002C9.42857 2.57986 8.66106 1.42859 7.71429 1.42859C6.76751 1.42859 6 2.57986 6 4.00002C6 5.42018 6.76751 6.57145 7.71429 6.57145Z" stroke="#DEE2E6" stroke-width="1.71429" stroke-linecap="round" stroke-linejoin="round"/>
<path d="M16.2857 6.57145C17.2325 6.57145 18 5.42018 18 4.00002C18 2.57986 17.2325 1.42859 16.2857 1.42859C15.339 1.42859 14.5714 2.57986 14.5714 4.00002C14.5714 5.42018 15.339 6.57145 16.2857 6.57145Z" stroke="#DEE2E6" stroke-width="1.71429" stroke-linecap="round" stroke-linejoin="round"/>
<path d="M21.4286 14.2857C22.3754 14.2857 23.1429 13.1344 23.1429 11.7143C23.1429 10.2941 22.3754 9.14282 21.4286 9.14282C20.4818 9.14282 19.7143 10.2941 19.7143 11.7143C19.7143 13.1344 20.4818 14.2857 21.4286 14.2857Z" stroke="#DEE2E6" stroke-width="1.71429" stroke-linecap="round" stroke-linejoin="round"/>
<path d="M17.1429 15.1428C17.1429 17.5085 14.3657 18.5714 12 18.5714C9.63429 18.5714 6.85715 17.5085 6.85715 15.1428C6.85715 12.7771 8.57143 9.14282 12 9.14282C15.4286 9.14282 17.1429 12.7771 17.1429 15.1428Z" stroke="#DEE2E6" stroke-width="1.71429" stroke-linecap="round" stroke-linejoin="round"/>
</svg>
