<svg width="20" height="18" viewBox="0 0 20 18" fill="none" xmlns="http://www.w3.org/2000/svg">
<path d="M8 4.99998L4.75 8.24998C5.06 8.36998 5.31 8.51998 5.52 8.63998C5.89 8.86998 6.11 8.99998 6.67 8.99998C7.23 8.99998 7.45 8.86998 7.82 8.63998C8.28 8.36998 8.9 7.99998 10.01 7.99998C11.12 7.99998 11.74 8.36998 12.19 8.63998C12.56 8.85998 12.79 8.99998 13.34 8.99998C13.89 8.99998 14.12 8.86998 14.49 8.63998C14.61 8.56998 14.75 8.48998 14.9 8.40998L8.48 1.99998C6.93 0.449976 5.5 -0.0100243 3 -2.42697e-05V2.49998C4.82 2.48998 5.89 2.88998 7 3.99998L8 4.99998ZM3.35 12.5C3.9 12.5 4.13 12.64 4.5 12.86C4.95 13.13 5.57 13.5 6.68 13.5C7.79 13.5 8.41 13.13 8.86 12.86C9.23 12.63 9.45 12.5 10.01 12.5C10.56 12.5 10.79 12.64 11.16 12.86C11.61 13.13 12.23 13.5 13.34 13.5C14.45 13.5 15.07 13.13 15.52 12.86C15.89 12.63 16.11 12.5 16.67 12.5C17.22 12.5 17.45 12.64 17.82 12.86C18.27 13.13 18.88 13.49 19.98 13.5V11.5C19.43 11.5 19.2 11.36 18.83 11.14C18.38 10.87 17.76 10.5 16.65 10.5C15.54 10.5 14.92 10.87 14.47 11.14C14.1 11.37 13.87 11.5 13.32 11.5C12.77 11.5 12.54 11.36 12.17 11.14C11.72 10.87 11.1 10.5 9.99 10.5C8.88 10.5 8.26 10.87 7.81 11.14C7.44 11.37 7.22 11.5 6.66 11.5C6.11 11.5 5.88 11.36 5.51 11.14C5.06 10.87 4.44 10.5 3.33 10.5C2.22 10.5 1.6 10.87 1.15 11.14C0.78 11.37 0.56 11.5 0 11.5V13.5C1.11 13.5 1.73 13.13 2.2 12.86C2.57 12.63 2.8 12.5 3.35 12.5ZM16.67 15C15.56 15 14.94 15.37 14.49 15.64C14.12 15.87 13.89 16 13.34 16C12.79 16 12.56 15.86 12.19 15.64C11.74 15.37 11.12 15 10.01 15C8.9 15 8.28 15.37 7.82 15.64C7.45 15.87 7.23 16 6.67 16C6.11 16 5.89 15.87 5.52 15.64C5.07 15.37 4.45 15 3.34 15C2.23 15 1.61 15.37 1.15 15.64C0.78 15.87 0.56 16 0 16V18C1.11 18 1.73 17.63 2.19 17.36C2.56 17.13 2.79 17 3.34 17C3.89 17 4.12 17.13 4.49 17.36C4.94 17.63 5.56 18 6.67 18C7.78 18 8.4 17.63 8.86 17.36C9.23 17.13 9.45 17 10.01 17C10.56 17 10.79 17.14 11.16 17.36C11.61 17.63 12.23 18 13.34 18C14.45 18 15.06 17.63 15.52 17.36C15.89 17.13 16.11 17 16.67 17C17.22 17 17.45 17.14 17.82 17.36C18.27 17.63 18.89 18 20 18V16C19.44 16 19.22 15.87 18.85 15.64C18.4 15.37 17.78 15 16.67 15Z" fill="#DEE2E6"/>
<path d="M14.5 5C15.8807 5 17 3.88071 17 2.5C17 1.11929 15.8807 0 14.5 0C13.1193 0 12 1.11929 12 2.5C12 3.88071 13.1193 5 14.5 5Z" fill="#DEE2E6"/>
</svg>
