<svg width="24" height="24" viewBox="0 0 24 24" fill="none" xmlns="http://www.w3.org/2000/svg">
<path d="M16.2492 14.264C15.0822 13.2267 13.5752 12.6537 12.0138 12.6537C10.4525 12.6537 8.94539 13.2267 7.77843 14.264C7.67982 14.3493 7.59915 14.4534 7.5411 14.5702C7.48305 14.6869 7.44877 14.8141 7.44027 14.9442C7.43176 15.0743 7.44919 15.2048 7.49155 15.3282C7.53391 15.4515 7.60035 15.5652 7.68701 15.6626C7.77367 15.76 7.87883 15.8393 7.99637 15.8957C8.11392 15.9522 8.24151 15.9847 8.37173 15.9915C8.50195 15.9982 8.63222 15.979 8.75496 15.9349C8.8777 15.8909 8.99046 15.8229 9.08671 15.735C9.89325 15.0181 10.9348 14.6222 12.0138 14.6222C13.0929 14.6222 14.1344 15.0181 14.9409 15.735C15.1361 15.9084 15.3922 15.9973 15.6529 15.9819C15.9136 15.9666 16.1575 15.8483 16.331 15.6532C16.5045 15.458 16.5933 15.2019 16.578 14.9412C16.5627 14.6805 16.4444 14.4366 16.2492 14.2631V14.264Z" fill="#DEE2E6"/>
<path d="M12.0131 8.61097C9.37019 8.60733 6.82537 9.61184 4.8975 11.4197C4.79989 11.5072 4.72072 11.6132 4.66463 11.7316C4.60855 11.8501 4.57667 11.9785 4.57088 12.1094C4.56508 12.2403 4.58549 12.3711 4.63089 12.494C4.6763 12.6169 4.74579 12.7296 4.8353 12.8253C4.9248 12.921 5.03252 12.9979 5.15213 13.0514C5.27173 13.105 5.40083 13.1341 5.53184 13.1371C5.66285 13.1401 5.79314 13.1169 5.91506 13.0688C6.03699 13.0208 6.1481 12.9489 6.24187 12.8574C7.80725 11.3939 9.87017 10.5797 12.0131 10.5797C14.1561 10.5797 16.219 11.3939 17.7844 12.8574C17.8781 12.9489 17.9893 13.0208 18.1112 13.0688C18.2331 13.1169 18.3634 13.1401 18.4944 13.1371C18.6254 13.1341 18.7545 13.105 18.8741 13.0514C18.9937 12.9979 19.1014 12.921 19.1909 12.8253C19.2805 12.7296 19.3499 12.6169 19.3954 12.494C19.4408 12.3711 19.4612 12.2403 19.4554 12.1094C19.4496 11.9785 19.4177 11.8501 19.3616 11.7316C19.3055 11.6132 19.2264 11.5072 19.1287 11.4197C17.2009 9.61184 14.6561 8.60733 12.0131 8.61097Z" fill="#DEE2E6"/>
<path d="M21.6562 8.24341C19.0023 5.87545 15.5699 4.56677 12.0131 4.56677C8.45635 4.56677 5.02392 5.87545 2.36998 8.24341C2.27024 8.32861 2.18853 8.43288 2.12966 8.55011C2.07079 8.66734 2.03594 8.79515 2.02717 8.92603C2.01839 9.05691 2.03587 9.18823 2.07856 9.31227C2.12125 9.43631 2.18831 9.55056 2.27578 9.64831C2.36326 9.74606 2.46939 9.82535 2.58794 9.8815C2.70649 9.93766 2.83507 9.96955 2.96612 9.97531C3.09718 9.98107 3.22806 9.96058 3.35108 9.91504C3.4741 9.8695 3.58677 9.79983 3.68248 9.71013C5.97544 7.66515 8.94049 6.53503 12.0129 6.53503C15.0853 6.53503 18.0503 7.66515 20.3433 9.71013C20.5379 9.88417 20.7937 9.97378 21.0544 9.95923C21.3151 9.94468 21.5593 9.82717 21.7333 9.63255C21.9074 9.43792 21.997 9.18213 21.9824 8.92144C21.9679 8.66075 21.8504 8.41652 21.6558 8.24247L21.6562 8.24341Z" fill="#DEE2E6"/>
<path d="M12.0131 19.941C12.8415 19.941 13.5131 19.2695 13.5131 18.441C13.5131 17.6126 12.8415 16.941 12.0131 16.941C11.1847 16.941 10.5131 17.6126 10.5131 18.441C10.5131 19.2695 11.1847 19.941 12.0131 19.941Z" fill="#DEE2E6"/>
</svg>
